Coordinates
version=1
nRows=8
nColumns=40
inDegrees=yes

Units are S.I. units (second, meters, Newtons, ...)
Angles are in degrees.

endheader
time	pelvis_tilt	pelvis_list	pelvis_rotation	pelvis_tx	pelvis_ty	pelvis_tz	hip_flexion_r	hip_adduction_r	hip_rotation_r	knee_angle_r	knee_angle_r_beta	ankle_angle_r	subtalar_angle_r	mtp_angle_r	hip_flexion_l	hip_adduction_l	hip_rotation_l	knee_angle_l	knee_angle_l_beta	ankle_angle_l	subtalar_angle_l	mtp_angle_l	lumbar_extension	lumbar_bending	lumbar_rotation	arm_flex_r	arm_add_r	arm_rot_r	elbow_flex_r	pro_sup_r	wrist_flex_r	wrist_dev_r	arm_flex_l	arm_add_l	arm_rot_l	elbow_flex_l	pro_sup_l	wrist_flex_l	wrist_dev_l
     30.76000000	     -3.76434404	     -2.99425772	     -3.62156815	      1.01702069	      0.92294087	      0.44479991	     29.71824509	     -5.55907662	    -14.56901517	     13.96594614	     13.96594614	      2.57713932	      5.38346284	     13.26765281	     -3.17477248	     -2.34697674	    -12.81229907	      8.69350269	      8.69350269	     16.57674117	     -0.97036655	     -7.54485672	    -12.55284328	      3.56108430	      0.74638378	    -24.29097245	    -14.67913483	    -13.80215506	     28.84727895	     47.21683531	      0.00000000	      0.00000000	     20.07565784	    -24.65113796	     -4.35723989	     96.40874759	     47.86244370	      0.00000000	      0.00000000
     30.77157143	     -3.64433489	     -2.81655786	     -3.49376297	      1.01771782	      0.92107105	      0.44677273	     29.03440949	     -5.38317960	    -14.93954152	     13.93563770	     13.93563770	      1.80225842	      5.61139983	     10.52587434	     -3.85980636	     -2.31605051	    -12.97926420	      8.86718778	      8.86718778	     17.41659520	     -0.31499717	     -7.23341108	    -12.31583799	      3.24992809	      0.62148456	    -24.89780834	    -14.27049713	    -15.08242501	     29.48154472	     47.18589895	      0.00000000	      0.00000000	     20.38379839	    -24.70751027	     -4.55327932	     97.87591165	     47.98049630	      0.00000000	      0.00000000
     30.78314286	     -3.59051942	     -2.73262184	     -3.35864101	      1.01836165	      0.91934340	      0.44884110	     28.51264831	     -5.15877589	    -15.11347144	     14.42054927	     14.42054927	      1.78129290	      5.63094641	     10.08020616	     -4.46918899	     -2.38158935	    -12.87880047	      9.01994024	      9.01994024	     17.91875188	     -0.20143345	     -7.33570763	    -12.00241276	      3.07586114	      0.69160702	    -25.19737531	    -13.94826517	    -15.09814443	     29.27057182	     47.18278746	      0.00000000	      0.00000000	     20.90496865	    -24.43635104	     -4.60955742	     98.73962211	     48.01181225	      0.00000000	      0.00000000
     30.79471429	     -3.58802685	     -2.72997295	     -3.11749813	      1.01893573	      0.91782872	      0.45094422	     27.97702090	     -4.89843034	    -15.19769649	     14.99169008	     14.99169008	      1.70126504	      5.50306191	      9.69842390	     -4.96705144	     -2.57583767	    -12.66949219	      9.23254590	      9.23254590	     18.34808089	     -0.09784652	     -7.42643988	    -11.64793547	      3.01884052	      0.59651815	    -25.26621362	    -13.65258393	    -15.09281058	     29.19407326	     47.17998041	      0.00000000	      0.00000000	     21.19713451	    -24.23609642	     -4.64153416	     99.26878429	     48.02936477	      0.00000000	      0.00000000
     30.80628571	     -3.61135811	     -2.64663094	     -3.00737017	      1.01941784	      0.91629501	      0.45326234	     27.68131367	     -4.71966122	    -14.96741307	     15.94177217	     15.94177217	      1.37775818	      5.13842663	      8.22208770	     -5.22881569	     -2.75750647	    -12.81369560	      9.88968102	      9.88968102	     19.01987999	      0.21539904	     -7.32033739	    -11.38911277	      2.82698784	      0.87669138	    -25.26423506	    -13.39828175	    -15.17186471	     28.97912277	     47.18179210	      0.00000000	      0.00000000	     21.41128626	    -23.73535937	     -4.82397245	    100.69021403	     48.08049491	      0.00000000	      0.00000000
     30.81785714	     -3.63193681	     -2.77871457	     -2.76972404	      1.02002927	      0.91513930	      0.45582757	     26.95368671	     -4.20280642	    -14.58009567	     16.01339188	     16.01339188	     -0.66535943	      4.02628276	      2.32398274	     -5.27986732	     -3.40439704	    -13.73557032	     11.10984570	     11.10984570	     20.66822805	      2.18452390	     -5.57619257	    -11.13247769	      2.88320351	      0.21533724	    -24.22014933	    -13.26935562	    -15.70309054	     28.26392908	     47.18964727	      0.00000000	      0.00000000	     20.53556279	    -23.69073044	     -5.98804731	    102.26394756	     48.23696139	      0.00000000	      0.00000000
     30.82942857	     -3.65830069	     -2.92223584	     -2.55696786	      1.02046602	      0.91453391	      0.45819234	     26.50850351	     -3.87114582	    -14.47132177	     16.68821332	     16.68821332	     -0.57023326	      3.82773969	      2.07022550	     -5.68027556	     -3.79481330	    -13.52767245	     11.41283173	     11.41283173	     20.83438373	      2.10595497	     -5.59993999	    -10.88935833	      3.02944309	      0.29901940	    -23.74502512	    -13.07144712	    -15.65867418	     28.38312855	     47.18208826	      0.00000000	      0.00000000	     20.47821323	    -23.27537869	     -5.86884562	    102.43250273	     48.23456970	      0.00000000	      0.00000000
     30.84100000	     -3.67878133	     -3.07654865	     -2.35205501	      1.02082157	      0.91426477	      0.46061104	     26.14211630	     -3.57082552	    -14.27637079	     17.42921528	     17.42921528	     -0.35942690	      3.46348222	      1.72213542	     -5.97966867	     -4.23872103	    -13.35766365	     11.90037459	     11.90037459	     20.95272179	      2.00733480	     -5.61127693	    -10.73598508	      3.17171866	      0.49092796	    -23.16634847	    -12.95513633	    -15.62279436	     28.52007301	     47.17575200	      0.00000000	      0.00000000	     20.31074066	    -22.77089911	     -5.77409196	    102.65278570	     48.23400928	      0.00000000	      0.00000000
